HIERARCHY
ROOT Hips
{
	OFFSET 0.000000 0.000000 0.000000
	CHANNELS 6 Xposition Yposition Zposition Xrotation Yrotation Zrotation
	JOINT LeftUpLeg_virtual
	{
		OFFSET 0.000000 0.000000 0.000000
		CHANNELS 3 Xrotation Yrotation Zrotation
		JOINT LeftUpLeg
		{
			OFFSET 10.205400 -3.823500 0.155100
			CHANNELS 3 Xrotation Yrotation Zrotation
			JOINT LeftLeg
			{
				OFFSET 0.708757 -12.982077 0.567790
				CHANNELS 3 Xrotation Yrotation Zrotation
				JOINT LeftFoot
				{
					OFFSET -0.708756 -10.717838 -2.184338
					CHANNELS 3 Xrotation Yrotation Zrotation
					JOINT LeftToeBase
					{
						OFFSET 0.108149 -7.191104 7.560241
						CHANNELS 3 Xrotation Yrotation Zrotation
						JOINT LeftToe_End
						{
							OFFSET 0.070230 0.081724 4.490308
							CHANNELS 3 Xrotation Yrotation Zrotation
							End Site
							{
								OFFSET 0 0 0
							}
						}
					}
				}
			}
		}
	}
	JOINT RightUpLeg_virtual
	{
		OFFSET 0.000000 0.000000 0.000000
		CHANNELS 3 Xrotation Yrotation Zrotation
		JOINT RightUpLeg
		{
			OFFSET -10.205400 -3.823500 0.005500
			CHANNELS 3 Xrotation Yrotation Zrotation
			JOINT RightLeg
			{
				OFFSET -0.708756 -12.982134 0.610632
				CHANNELS 3 Xrotation Yrotation Zrotation
				JOINT RightFoot
				{
					OFFSET 0.708754 -10.717769 -1.945823
					CHANNELS 3 Xrotation Yrotation Zrotation
					JOINT RightToeBase
					{
						OFFSET -0.108140 -7.191069 7.372968
						CHANNELS 3 Xrotation Yrotation Zrotation
						JOINT RightToe_End
						{
							OFFSET -0.070227 0.081735 4.479403
							CHANNELS 3 Xrotation Yrotation Zrotation
							End Site
							{
								OFFSET 0 0 0
							}
						}
					}
				}
			}
		}
	}
	JOINT Spine_virtual
	{
		OFFSET 0.000000 0.000000 0.000000
		CHANNELS 3 Xrotation Yrotation Zrotation
		JOINT Spine
		{
			OFFSET 0.000000 6.876099 0.125700
			CHANNELS 3 Xrotation Yrotation Zrotation
			JOINT Spine1
			{
				OFFSET 0.000000 5.730043 0.104720
				CHANNELS 3 Xrotation Yrotation Zrotation
				JOINT Spine1_split
				{
					OFFSET 0.000000 5.730043 0.104720
					CHANNELS 3 Xrotation Yrotation Zrotation
					JOINT Spine2
					{
						OFFSET 0.000000 5.730043 0.104720
						CHANNELS 3 Xrotation Yrotation Zrotation
						JOINT Neck_virtual
						{
							OFFSET 0.000000 0.000000 0.000000
							CHANNELS 3 Xrotation Yrotation Zrotation
							JOINT Neck
							{
								OFFSET 0.000000 10.314075 0.188496
								CHANNELS 3 Xrotation Yrotation Zrotation
								JOINT Head
								{
									OFFSET 0.000000 7.643700 -2.377400
									CHANNELS 3 Xrotation Yrotation Zrotation
									JOINT HeadTop_End
									{
										OFFSET 0.000000 43.788605 -13.619600
										CHANNELS 3 Xrotation Yrotation Zrotation
										End Site
										{
											OFFSET 0 0 0
										}
									}
								}
							}
						}
						JOINT LeftShoulder_virtual
						{
							OFFSET 0.000000 0.000000 0.000000
							CHANNELS 3 Xrotation Yrotation Zrotation
							JOINT LeftShoulder
							{
								OFFSET 2.196100 4.412489 0.087492
								CHANNELS 3 Xrotation Yrotation Zrotation
								JOINT LeftShoulder_split
								{
									OFFSET 2.196100 4.412489 0.087492
									CHANNELS 3 Xrotation Yrotation Zrotation
									JOINT LeftArm
									{
										OFFSET 8.771219 -2.981674 -0.026999
										CHANNELS 3 Xrotation Yrotation Zrotation
										JOINT LeftForeArm
										{
											OFFSET 8.512804 0.000000 -0.000000
											CHANNELS 3 Xrotation Yrotation Zrotation
											JOINT LeftHand
											{
												OFFSET 18.484802 0.000000 -0.000000
												CHANNELS 3 Xrotation Yrotation Zrotation
												End Site
												{
													OFFSET 0 0 0
												}
											}
										}
									}
								}
							}
						}
						JOINT RightShoulder_virtual
						{
							OFFSET 0.000000 0.000000 0.000000
							CHANNELS 3 Xrotation Yrotation Zrotation
							JOINT RightShoulder
							{
								OFFSET -2.196100 4.412496 0.070690
								CHANNELS 3 Xrotation Yrotation Zrotation
								JOINT RightShoulder_split
								{
									OFFSET -2.196100 4.412496 0.070690
									CHANNELS 3 Xrotation Yrotation Zrotation
									JOINT RightArm
									{
										OFFSET -8.771282 -2.981682 -0.094208
										CHANNELS 3 Xrotation Yrotation Zrotation
										JOINT RightForeArm
										{
											OFFSET -8.494598 0.000000 0.000000
											CHANNELS 3 Xrotation Yrotation Zrotation
											JOINT RightHand
											{
												OFFSET -18.483803 0.000000 0.000001
												CHANNELS 3 Xrotation Yrotation Zrotation
												End Site
												{
													OFFSET 0 0 0
												}
											}
										}
									}
								}
							}
						}
					}
				}
			}
		}
	}
}
MOTION
Frames: 7
Frame Time: 0.03333333
0.199580 28.147657 0.989115 0.000000 0.000000 0.000000 6.435984 -58.356173 8.542626 -36.420857 4.654665 32.127724 42.773667 -10.727184 -6.651752 -12.924229 -2.592338 -16.269015 2.109068 0.080722 -1.074773 0.000000 0.000000 0.000000 6.730181 -58.689910 9.121085 -31.424406 -3.780800 -36.673410 54.448212 10.359657 -4.891635 -27.310409 -7.410667 26.071476 8.026543 0.635481 -1.210754 0.000000 0.000000 0.000000 8.987688 -54.926233 10.224741 8.868869 -2.014907 -1.634465 8.619425 0.493768 -5.852673 -0.458620 -4.785535 1.068821 0.000000 0.000000 0.000000 8.462914 1.019484 -4.768036 -15.120208 27.005006 6.429402 -2.807308 36.084969 -6.853198 0.000000 0.000000 0.000000 8.518851 1.120378 -5.529349 -5.879425 -9.428709 -1.088157 -5.915995 1.089969 -4.144173 -19.201962 -1.175771 -33.062743 2.999764 -34.465275 7.947863 0.000000 0.000000 0.000000 9.051725 1.150873 -5.393397 -2.946151 11.459291 -3.297982 2.058004 -3.704547 8.339915 -43.506492 -19.886237 33.294249 -151.988047 66.806996 149.823956 0.000000 0.000000 0.000000 
0.266243 28.148083 0.688147 0.000000 0.000000 0.000000 6.873371 -58.139663 9.118290 -36.064813 4.933024 31.502567 41.979654 -10.090081 -7.146651 -13.371380 -2.521322 -15.983693 2.024684 0.051234 -1.174925 0.000000 0.000000 0.000000 6.941035 -59.249330 9.626303 -31.651551 -3.892001 -37.013632 54.318527 10.429345 -4.728524 -26.883715 -7.189218 25.795492 7.384789 0.408690 -0.805346 0.000000 0.000000 0.000000 9.281144 -54.724961 10.662356 8.785240 -1.829511 -1.564587 8.507670 0.456871 -5.851937 -0.309808 -4.558272 1.478752 0.000000 0.000000 0.000000 8.546374 0.934128 -4.660956 -14.999700 27.522942 6.468483 -2.209688 35.613405 -6.825188 0.000000 0.000000 0.000000 8.564162 1.063276 -5.470156 -5.869025 -9.571308 -1.454134 -6.915462 0.680121 -4.721413 -18.793375 -1.157335 -33.782433 2.940051 -35.878123 7.623662 0.000000 0.000000 0.000000 8.924996 1.030808 -5.167346 -2.342523 12.129002 -2.907385 1.494127 -3.993981 6.642732 -43.477354 -22.317667 32.555755 -149.560434 68.104356 147.458689 0.000000 0.000000 0.000000 
0.320995 28.155060 0.323448 0.000000 0.000000 0.000000 7.067716 -58.492934 9.864188 -35.070310 5.832475 30.793952 40.873208 -9.053003 -7.811634 -13.793634 -2.343575 -16.117320 1.870747 0.001805 -1.065680 0.000000 0.000000 0.000000 6.871010 -60.199600 10.282752 -32.401929 -3.951623 -37.784036 54.127999 11.046365 -4.415306 -26.124029 -6.689875 25.818764 6.510567 0.295469 -0.736247 0.000000 0.000000 0.000000 8.979960 -54.867255 10.874449 9.056637 -1.528799 -1.494544 8.604910 0.493680 -5.770306 0.025948 -3.870317 1.508781 0.000000 0.000000 0.000000 8.673084 0.983661 -4.566227 -15.782494 27.758037 7.512943 -1.063208 34.986841 -7.049384 0.000000 0.000000 0.000000 8.709474 1.058030 -5.339954 -5.897624 -10.069840 -1.903494 -7.532292 -0.275673 -5.182737 -19.028241 1.143146 -34.844514 3.276957 -37.876179 6.628773 0.000000 0.000000 0.000000 8.839623 0.990090 -4.888103 -1.481616 12.576775 -2.221711 0.468345 -3.317499 5.097404 -44.081525 -23.954635 30.110271 -142.068645 69.250393 140.558135 0.000000 0.000000 0.000000 
0.328489 28.180613 0.071098 0.000000 0.000000 0.000000 7.101786 -59.620195 10.786025 -33.419074 7.313342 30.014208 39.866103 -7.658446 -8.474502 -14.243375 -1.963360 -16.554934 2.148609 -0.055084 -0.894344 0.000000 0.000000 0.000000 6.710227 -61.518168 11.085793 -33.492652 -3.711171 -38.862701 53.949117 12.048934 -3.920659 -25.145584 -5.910385 26.025102 5.533411 0.298137 -0.944874 0.000000 0.000000 0.000000 8.231456 -55.609187 10.957777 9.623772 -1.133566 -1.438123 8.889793 0.628578 -5.567184 0.257159 -3.057902 1.294008 0.000000 0.000000 0.000000 8.846054 1.170951 -4.432701 -17.100562 27.678239 9.088182 0.683183 34.391912 -7.666957 0.000000 0.000000 0.000000 8.932351 1.140665 -5.096470 -5.997960 -10.923235 -2.615345 -7.990474 -1.460458 -5.324925 -19.257952 5.188651 -35.852780 4.011033 -40.150721 5.139949 0.000000 0.000000 0.000000 8.880124 1.054845 -4.573794 -0.426232 12.958599 -1.421017 -0.760758 -2.406650 3.810327 -44.975378 -24.148711 26.014474 -130.122931 69.521244 129.666961 0.000000 0.000000 0.000000 
0.279173 28.209488 -0.011814 0.000000 0.000000 0.000000 7.134136 -61.715438 11.915364 -31.226150 9.205943 29.206517 39.252213 -5.948906 -9.009187 -15.069566 -1.188434 -17.156928 3.006839 -0.082130 -0.798605 0.000000 0.000000 0.000000 6.505790 -63.430177 11.965761 -34.870400 -2.909437 -39.914133 53.673802 13.253336 -3.267627 -24.066238 -4.948465 26.188368 4.390838 0.414714 -1.278191 0.000000 0.000000 0.000000 7.038623 -57.217157 10.967921 10.344121 -0.666994 -1.363872 9.319422 0.861879 -5.154548 0.443112 -2.299932 1.072216 0.000000 0.000000 0.000000 9.095726 1.467683 -4.172308 -18.317189 27.407570 10.720035 3.034446 34.068068 -8.883319 0.000000 0.000000 0.000000 9.302133 1.313793 -4.645579 -6.215443 -12.117682 -3.698387 -8.171068 -2.182105 -5.452593 -19.014108 9.826438 -36.431795 5.387808 -42.758746 3.526037 0.000000 0.000000 0.000000 9.109741 1.213692 -4.170786 0.720437 13.374211 -0.811423 -1.736084 -2.044067 2.631524 -45.513983 -22.330301 20.587090 -115.579314 68.428646 116.486144 0.000000 0.000000 0.000000 
0.194292 28.247854 0.072756 0.000000 0.000000 0.000000 7.192951 -64.709513 13.176492 -28.571132 11.235865 28.374156 39.097085 -4.038622 -9.349864 -16.578247 -0.044228 -17.865162 3.825363 -0.032212 -0.692304 0.000000 0.000000 0.000000 6.421516 -65.962197 12.962042 -36.518238 -1.354173 -40.607240 53.297353 14.484499 -2.571254 -22.982221 -3.945691 26.207612 3.050856 0.598564 -1.505962 0.000000 0.000000 0.000000 5.435466 -59.757448 10.906245 11.007989 -0.175708 -1.218255 9.854104 1.161359 -4.484645 0.449946 -1.600865 1.023615 0.000000 0.000000 0.000000 9.416162 1.818845 -3.707769 -18.860164 27.244528 11.956158 5.884766 34.107233 -10.815213 0.000000 0.000000 0.000000 9.825117 1.560936 -3.947136 -6.582971 -13.580698 -5.176944 -7.856544 -2.490617 -5.485091 -17.768290 13.956937 -36.319452 7.880422 -45.843806 2.511963 0.000000 0.000000 0.000000 9.561691 1.418659 -3.637956 1.952723 14.027791 -0.682526 -2.670709 -2.794632 1.782728 -44.705347 -18.562861 14.402000 -99.482942 65.982093 101.939549 0.000000 0.000000 0.000000 
0.117994 28.278625 0.281166 0.000000 0.000000 0.000000 7.422342 -68.358248 14.627610 -25.779279 13.026626 27.521416 39.553878 -2.233296 -9.578900 -18.543277 1.238974 -18.618339 4.113739 0.091473 -0.541195 0.000000 0.000000 0.000000 6.545623 -68.910127 14.067812 -38.301297 0.983570 -40.754158 53.101630 15.692109 -1.922788 -21.855933 -2.963282 25.982545 1.821564 0.797835 -1.470023 0.000000 0.000000 0.000000 3.772913 -62.992765 10.950584 11.437528 0.295494 -0.916810 10.429255 1.443948 -3.541624 0.339465 -1.022643 1.093367 0.000000 0.000000 0.000000 9.815935 2.116544 -2.988150 -18.426688 27.336985 12.644615 8.939726 34.495293 -13.443465 0.000000 0.000000 0.000000 10.474469 1.791537 -3.017870 -7.017618 -15.284614 -6.841558 -6.649743 -2.342392 -5.246949 -15.506485 17.013277 -35.452141 12.274097 -49.117885 3.054510 0.000000 0.000000 0.000000 10.206019 1.601461 -2.896636 3.251181 14.916549 -1.376961 -3.105750 -4.293376 1.422313 -42.228594 -13.258992 8.315742 -83.464727 62.056858 87.370912 0.000000 0.000000 0.000000 
